<mxfile host="65bd71144e">
    <diagram id="tm9ZakB67KicmRcMlh1w" name="Page-1">
        <mxGraphModel dx="1904" dy="1217" grid="1" gridSize="10" guides="1" tooltips="1" connect="1" arrows="1" fold="1" page="1" pageScale="1" pageWidth="827" pageHeight="1169" math="0" shadow="0">
            <root>
                <mxCell id="0"/>
                <mxCell id="1" parent="0"/>
                <mxCell id="2" value="supplier" style="rounded=0;whiteSpace=wrap;html=1;fillColor=#f5f5f5;strokeColor=#666666;fontColor=#333333;" parent="1" vertex="1">
                    <mxGeometry x="140" y="5" width="100" height="60" as="geometry"/>
                </mxCell>
                <mxCell id="3" value="consumer" style="rounded=0;whiteSpace=wrap;html=1;fillColor=#f5f5f5;strokeColor=#666666;fontColor=#333333;" parent="1" vertex="1">
                    <mxGeometry x="440" y="5.75" width="100" height="60" as="geometry"/>
                </mxCell>
                <mxCell id="4" value="" style="endArrow=classic;html=1;" parent="1" edge="1">
                    <mxGeometry width="50" height="50" relative="1" as="geometry">
                        <mxPoint x="90" y="35.25" as="sourcePoint"/>
                        <mxPoint x="140" y="35.75" as="targetPoint"/>
                    </mxGeometry>
                </mxCell>
                <mxCell id="5" value="Cloud&#10;Pub/Sub" style="html=1;fillColor=#5184F3;strokeColor=none;verticalAlign=top;labelPosition=center;verticalLabelPosition=bottom;align=center;spacingTop=-6;fontSize=11;fontStyle=1;fontColor=#999999;shape=mxgraph.gcp2.hexIcon;prIcon=cloud_pubsub" parent="1" vertex="1">
                    <mxGeometry x="307" y="5.75" width="66" height="58.5" as="geometry"/>
                </mxCell>
                <mxCell id="6" value="&lt;font color=&quot;#000000&quot; style=&quot;font-size: 9px;&quot;&gt;Spring&lt;br style=&quot;font-size: 9px;&quot;&gt;Cloud&lt;br style=&quot;font-size: 9px;&quot;&gt;Stream&lt;/font&gt;" style="rounded=1;whiteSpace=wrap;html=1;fillColor=#fff2cc;strokeColor=#d6b656;fontSize=9;" parent="1" vertex="1">
                    <mxGeometry x="230" width="50" height="70" as="geometry"/>
                </mxCell>
                <mxCell id="9" value="HTTP/POST" style="text;html=1;align=center;verticalAlign=middle;resizable=0;points=[];autosize=1;strokeColor=none;" vertex="1" parent="1">
                    <mxGeometry x="10" y="25.75" width="80" height="20" as="geometry"/>
                </mxCell>
                <mxCell id="10" value="stdout" style="text;html=1;align=center;verticalAlign=middle;resizable=0;points=[];autosize=1;strokeColor=none;" vertex="1" parent="1">
                    <mxGeometry x="586" y="25" width="50" height="20" as="geometry"/>
                </mxCell>
                <mxCell id="11" value="" style="endArrow=classic;html=1;" edge="1" parent="1">
                    <mxGeometry width="50" height="50" relative="1" as="geometry">
                        <mxPoint x="540" y="35.46000000000001" as="sourcePoint"/>
                        <mxPoint x="590" y="35.96000000000001" as="targetPoint"/>
                    </mxGeometry>
                </mxCell>
                <mxCell id="13" value="" style="endArrow=classic;html=1;" edge="1" parent="1">
                    <mxGeometry width="50" height="50" relative="1" as="geometry">
                        <mxPoint x="280" y="35.46000000000001" as="sourcePoint"/>
                        <mxPoint x="310" y="35" as="targetPoint"/>
                    </mxGeometry>
                </mxCell>
                <mxCell id="14" value="" style="endArrow=classic;html=1;exitX=0;exitY=0.5;exitDx=0;exitDy=0;" edge="1" parent="1">
                    <mxGeometry width="50" height="50" relative="1" as="geometry">
                        <mxPoint x="400" y="35" as="sourcePoint"/>
                        <mxPoint x="370" y="35" as="targetPoint"/>
                    </mxGeometry>
                </mxCell>
                <mxCell id="16" value="&lt;font color=&quot;#000000&quot; style=&quot;font-size: 9px;&quot;&gt;Spring&lt;br style=&quot;font-size: 9px;&quot;&gt;Cloud&lt;br style=&quot;font-size: 9px;&quot;&gt;Stream&lt;/font&gt;" style="rounded=1;whiteSpace=wrap;html=1;fillColor=#fff2cc;strokeColor=#d6b656;fontSize=9;" vertex="1" parent="1">
                    <mxGeometry x="400" y="0.75" width="50" height="70" as="geometry"/>
                </mxCell>
                <mxCell id="17" value="&lt;font style=&quot;font-size: 9px&quot; color=&quot;#808080&quot;&gt;{&quot;firstName&quot;:&quot;Taro&quot;,&lt;br&gt;&quot;lastName&quot;:&quot;Yamada&quot;}&lt;/font&gt;" style="text;html=1;align=center;verticalAlign=middle;resizable=0;points=[];autosize=1;strokeColor=none;" vertex="1" parent="1">
                    <mxGeometry y="41" width="100" height="40" as="geometry"/>
                </mxCell>
                <mxCell id="18" value="&lt;font style=&quot;font-size: 9px&quot; color=&quot;#808080&quot;&gt;receive User(userId=8140fbbc-4b00-49e1-a9ff-c02585e0c7f1,&lt;br&gt;firstName=Taro, lastName=Yamada)&lt;/font&gt;" style="text;html=1;align=center;verticalAlign=middle;resizable=0;points=[];autosize=1;strokeColor=none;" vertex="1" parent="1">
                    <mxGeometry x="539" y="35.75" width="260" height="40" as="geometry"/>
                </mxCell>
            </root>
        </mxGraphModel>
    </diagram>
</mxfile>